<?xml version="1.0" encoding="utf-8"?>
<svg version="1.1" x="0px" y="0px" viewBox="0 0 64 64" style="enable-background:new 0 0 64 64;" xmlns="http://www.w3.org/2000/svg">
  <style type="text/css">
	.st0{fill:#4F5D73;}
	.st1{opacity:0.2;}
	.st2{fill:#231F20;}
	.st3{fill:#C75C5C;}
	.st4{fill:#E0995E;}
	.st5{fill:#F5CF87;}
	.st6{fill:#E0E0D1;}
</style>
  <g id="Layer_1" transform="matrix(0.992547, 0.12187, -0.12187, 0.992547, 5.146317, 0.188452)">
    <g transform="matrix(1, 0, 0, 1, -0.785775, -4.095528)">
      <circle class="st0" cx="31.19" cy="32.202" r="32"/>
    </g>
    <g class="st1">
      <path class="st2" d="M32.1,39.7C30.5,41.2,26,52.2,26,52.2c-0.7,1.2,0.3,2.1,2.6,0.9l8.1-4.4c4.4-2.4,5.2-3.1,5.2-8l-0.8-5.9 c-0.3-2-1.8-2.4-3.3-0.8L32.1,39.7z"/>
    </g>
    <g class="st1">
      <path class="st2" d="M27.1,34.7c-1.6,1.6-12.5,6.1-12.5,6.1c-1.2,0.7-2.1-0.3-0.9-2.6L18,30c2.4-4.4,3.1-5.2,8-5.2l5.9,0.8 c2,0.3,2.4,1.8,0.8,3.3L27.1,34.7z"/>
    </g>
    <g>
      <path class="st3" d="M32.1,37.7C30.5,39.2,26,50.2,26,50.2c-0.7,1.2,0.3,2.1,2.6,0.9l8.1-4.4c4.4-2.4,5.2-3.1,5.2-8l-0.8-5.9 c-0.3-2-1.8-2.4-3.3-0.8L32.1,37.7z" style="fill: rgb(7, 132, 216);"/>
    </g>
    <g>
      <path class="st3" d="M27.1,32.7c-1.6,1.6-12.5,6.1-12.5,6.1c-1.2,0.7-2.1-0.3-0.9-2.6L18,28c2.4-4.4,3.1-5.2,8-5.2l5.9,0.8 c2,0.3,2.4,1.8,0.8,3.3L27.1,32.7z" style="fill: rgb(7, 132, 216);"/>
    </g>
    <g class="st1">
      <path class="st2" d="M21.2,39.5c5.1-5.1,9.3-3.5,9.3-3.5s1.5,4.3-3.5,9.3s-13.3,8.8-13.9,8.1C12.5,52.9,16.2,44.6,21.2,39.5z"/>
    </g>
    <g>
      <path class="st4" d="M21.2,37.5c5.1-5.1,9.3-3.5,9.3-3.5s1.5,4.3-3.5,9.3s-13.3,8.8-13.9,8.1C12.5,50.9,16.2,42.6,21.2,37.5z"/>
    </g>
    <g>
      <path class="st5" d="M25.5,33.3c5.1-5.1,9.3-3.5,9.3-3.5s1.5,4.3-3.5,9.3S18,47.9,17.4,47.2C16.7,46.6,20.4,38.4,25.5,33.3z"/>
    </g>
    <g class="st1">
      <path class="st2" d="M43.6,37.1c-7.8,7.8-19.8,5.7-19.8,5.7s-2.1-12,5.7-19.8s19.6-8.6,21.2-7.1C52.2,17.4,51.4,29.3,43.6,37.1z"/>
    </g>
    <g transform="matrix(1, 0, 0, 1, -0.004396, 0.035802)">
      <path class="st6" d="M 43.601 35.092 C 35.801 42.892 23.801 40.792 23.801 40.792 C 23.801 40.792 21.701 28.792 29.501 20.992 C 37.301 13.192 49.101 12.392 50.701 13.892 C 52.201 15.392 51.401 27.292 43.601 35.092 Z"/>
    </g>
    <g class="st1">
      <path class="st2" d="M21,47c-0.8,0.8-1.3,1.5-2.1,0.7l0,0c-0.8-0.8-0.1-1.3,0.7-2.1l9.9-12.7c0.8-0.8,4.2-1.5,4.9-0.7l0,0 c0.8,0.8,0.1,4.2-0.7,4.9L21,47z"/>
    </g>
    <g>
      <path class="st3" d="M21,45c-0.8,0.8-1.3,1.5-2.1,0.7l0,0c-0.8-0.8-0.1-1.3,0.7-2.1l9.9-12.7c0.8-0.8,4.2-1.5,4.9-0.7l0,0 c0.8,0.8,0.1,4.2-0.7,4.9L21,45z" style="fill: rgb(7, 132, 216);"/>
    </g>
    <g class="st1">
      <circle class="st2" cx="39.6" cy="27.1" r="4"/>
    </g>
    <g class="st1">
      <circle class="st2" cx="45.3" cy="21.5" r="2"/>
    </g>
    <g>
      <circle class="st0" cx="39.6" cy="25.1" r="4"/>
    </g>
    <g>
      <circle class="st0" cx="45.3" cy="19.5" r="2"/>
    </g>
  </g>
  <g id="Layer_2"/>
  <g transform="matrix(0.038728, 0, 0, 0.038728, 14.843542, 0.274345)">
    <path d="M666.3,296.5c0-32.5-40.7-63.3-103.1-82.4c14.4-63.6,8-114.2-20.2-130.4c-6.5-3.8-14.1-5.6-22.4-5.6v22.3 c4.6,0,8.3,0.9,11.4,2.6c13.6,7.8,19.5,37.5,14.9,75.7c-1.1,9.4-2.9,19.3-5.1,29.4c-19.6-4.8-41-8.5-63.5-10.9 c-13.5-18.5-27.5-35.3-41.6-50c32.6-30.3,63.2-46.9,84-46.9l0-22.3c0,0,0,0,0,0c-27.5,0-63.5,19.6-99.9,53.6 c-36.4-33.8-72.4-53.2-99.9-53.2v22.3c20.7,0,51.4,16.5,84,46.6c-14,14.7-28,31.4-41.3,49.9c-22.6,2.4-44,6.1-63.6,11 c-2.3-10-4-19.7-5.2-29c-4.7-38.2,1.1-67.9,14.6-75.8c3-1.8,6.9-2.6,11.5-2.6l0-22.3c0,0,0,0,0,0c-8.4,0-16,1.8-22.6,5.6 c-28.1,16.2-34.4,66.7-19.9,130.1c-62.2,19.2-102.7,49.9-102.7,82.3c0,32.5,40.7,63.3,103.1,82.4c-14.4,63.6-8,114.2,20.2,130.4 c6.5,3.8,14.1,5.6,22.5,5.6c27.5,0,63.5-19.6,99.9-53.6c36.4,33.8,72.4,53.2,99.9,53.2c8.4,0,16-1.8,22.6-5.6 c28.1-16.2,34.4-66.7,19.9-130.1C625.8,359.7,666.3,328.9,666.3,296.5z M536.1,229.8c-3.7,12.9-8.3,26.2-13.5,39.5 c-4.1-8-8.4-16-13.1-24c-4.6-8-9.5-15.8-14.4-23.4C509.3,224,523,226.6,536.1,229.8z M490.3,336.3c-7.8,13.5-15.8,26.3-24.1,38.2 c-14.9,1.3-30,2-45.2,2c-15.1,0-30.2-0.7-45-1.9c-8.3-11.9-16.4-24.6-24.2-38c-7.6-13.1-14.5-26.4-20.8-39.8 c6.2-13.4,13.2-26.8,20.7-39.9c7.8-13.5,15.8-26.3,24.1-38.2c14.9-1.3,30-2,45.2-2c15.1,0,30.2,0.7,45,1.9 c8.3,11.9,16.4,24.6,24.2,38c7.6,13.1,14.5,26.4,20.8,39.8C504.7,309.8,497.8,323.2,490.3,336.3z M522.6,323.3 c5.4,13.4,10,26.8,13.8,39.8c-13.1,3.2-26.9,5.9-41.2,8c4.9-7.7,9.8-15.6,14.4-23.7C514.2,339.4,518.5,331.3,522.6,323.3z M421.2,430c-9.3-9.6-18.6-20.3-27.8-32c9,0.4,18.2,0.7,27.5,0.7c9.4,0,18.7-0.2,27.8-0.7C439.7,409.7,430.4,420.4,421.2,430z M346.8,371.1c-14.2-2.1-27.9-4.7-41-7.9c3.7-12.9,8.3-26.2,13.5-39.5c4.1,8,8.4,16,13.1,24C337.1,355.7,341.9,363.5,346.8,371.1z M420.7,163c9.3,9.6,18.6,20.3,27.8,32c-9-0.4-18.2-0.7-27.5-0.7c-9.4,0-18.7,0.2-27.8,0.7C402.2,183.3,411.5,172.6,420.7,163z M346.7,221.9c-4.9,7.7-9.8,15.6-14.4,23.7c-4.6,8-8.9,16-13,24c-5.4-13.4-10-26.8-13.8-39.8C318.6,226.7,332.4,224,346.7,221.9z M256.2,347.1c-35.4-15.1-58.3-34.9-58.3-50.6c0-15.7,22.9-35.6,58.3-50.6c8.6-3.7,18-7,27.7-10.1c5.7,19.6,13.2,40,22.5,60.9 c-9.2,20.8-16.6,41.1-22.2,60.6C274.3,354.2,264.9,350.8,256.2,347.1z M310,490c-13.6-7.8-19.5-37.5-14.9-75.7 c1.1-9.4,2.9-19.3,5.1-29.4c19.6,4.8,41,8.5,63.5,10.9c13.5,18.5,27.5,35.3,41.6,50c-32.6,30.3-63.2,46.9-84,46.9 C316.8,492.6,313,491.7,310,490z M547.2,413.8c4.7,38.2-1.1,67.9-14.6,75.8c-3,1.8-6.9,2.6-11.5,2.6c-20.7,0-51.4-16.5-84-46.6 c14-14.7,28-31.4,41.3-49.9c22.6-2.4,44-6.1,63.6-11C544.3,394.8,546.1,404.5,547.2,413.8z M585.7,347.1c-8.6,3.7-18,7-27.7,10.1 c-5.7-19.6-13.2-40-22.5-60.9c9.2-20.8,16.6-41.1,22.2-60.6c9.9,3.1,19.3,6.5,28.1,10.2c35.4,15.1,58.3,34.9,58.3,50.6 C644,312.2,621.1,332.1,585.7,347.1z" style="fill: rgb(7, 132, 216);"/>
    <polygon points="320.8,78.4 320.8,78.4 320.8,78.4 &#9;" style="fill: rgb(7, 132, 216);"/>
    <circle cx="420.9" cy="296.5" r="45.7" style="fill: rgb(7, 132, 216);"/>
    <polygon points="520.5,78.1 520.5,78.1 520.5,78.1 &#9;" style="fill: rgb(7, 132, 216);"/>
  </g>
</svg>